<svg width="24" height="24" viewBox="0 0 24 24" xmlns="http://www.w3.org/2000/svg">
<path fill-rule="evenodd" clip-rule="evenodd" d="M0 12C0 15.1826 1.26428 18.2348 3.51472 20.4853C5.76516 22.7357 8.8174 24 12 24C15.1826 24 18.2348 22.7357 20.4853 20.4853C22.7357 18.2348 24 15.1826 24 12C24 8.8174 22.7357 5.76516 20.4853 3.51472C18.2348 1.26428 15.1826 0 12 0C8.8174 0 5.76516 1.26428 3.51472 3.51472C1.26428 5.76516 0 8.8174 0 12ZM21.9429 12C21.9429 14.637 20.8953 17.166 19.0307 19.0307C17.166 20.8953 14.637 21.9429 12 21.9429C9.36299 21.9429 6.83399 20.8953 4.96934 19.0307C3.10469 17.166 2.05714 14.637 2.05714 12C2.05714 9.36299 3.10469 6.83399 4.96934 4.96934C6.83399 3.10469 9.36299 2.05714 12 2.05714C14.637 2.05714 17.166 3.10469 19.0307 4.96934C20.8953 6.83399 21.9429 9.36299 21.9429 12Z" fill="white"/>
<path fill-rule="evenodd" clip-rule="evenodd" d="M6.85742 12.0001C6.85742 18.2017 8.90222 23.3144 12.0003 23.3144C15.0983 23.3144 17.1431 18.2017 17.1431 12.0001C17.1431 5.79848 15.0983 0.685791 12.0003 0.685791C8.90222 0.685791 6.85742 5.79848 6.85742 12.0001ZM15.086 12.0001C15.086 17.1594 13.4471 21.2572 12.0003 21.2572C10.5534 21.2572 8.91456 17.1594 8.91456 12.0001C8.91456 6.84076 10.5534 2.74293 12.0003 2.74293C13.4471 2.74293 15.086 6.84076 15.086 12.0001Z" fill="white"/>
<path d="M3.22739 5.78333L4.60704 4.2583C4.74419 4.38173 4.89367 4.50516 5.05276 4.62447C6.79584 5.93007 9.57847 6.73647 12.6162 6.73647C15.2096 6.73647 17.6246 6.15087 19.3787 5.14836C19.8011 4.90699 20.1769 4.64504 20.5019 4.36664L21.8377 5.93144C21.3914 6.30997 20.9102 6.64519 20.4004 6.93259C18.3213 8.12299 15.5538 8.79224 12.6162 8.79224C9.15744 8.79224 5.94419 7.86242 3.81847 6.27019C3.61407 6.11706 3.41683 5.95461 3.22739 5.78333ZM3.22739 18.2386L4.60704 19.7637C4.74419 19.6389 4.89367 19.5168 5.05276 19.3975C6.79584 18.0919 9.57847 17.2855 12.6162 17.2855C15.2096 17.2855 17.6246 17.8711 19.3787 18.8736C19.8011 19.115 20.1769 19.3769 20.5019 19.6553L21.8377 18.0905C21.3909 17.7127 20.9097 17.3776 20.4004 17.0894C18.3213 15.899 15.5538 15.2297 12.6162 15.2297C9.15744 15.2297 5.94419 16.1596 3.81847 17.7518C3.61407 17.9049 3.41683 18.0674 3.22739 18.2386ZM0.6875 13.0286V10.9714H23.3161V13.0286H0.6875Z" fill="white"/>
</svg>
